<?xml version="1.0" encoding="UTF-8"?><svg id="a" xmlns="http://www.w3.org/2000/svg" viewBox="0 0 6.88 9.94"><path d="m1.01,1.01C1.65.36,2.53,0,3.44,0s1.79.36,2.43,1.01c.65.65,1.01,1.52,1.01,2.43s-.36,1.79-1.01,2.43c-.55.55-1.28.9-2.05.99v1.3h.64c.21,0,.38.17.38.38s-.17.38-.38.38h-.64v.64c0,.21-.17.38-.38.38s-.38-.17-.38-.38v-.64h-.64c-.21,0-.38-.17-.38-.38s.17-.38.38-.38h.64v-1.3c-.77-.09-1.5-.43-2.05-.99-.65-.65-1.01-1.52-1.01-2.43S.36,1.65,1.01,1.01Zm2.43-.24c-.71,0-1.39.28-1.89.78-.5.5-.78,1.18-.78,1.89s.28,1.39.78,1.89c.5.5,1.18.78,1.89.78s1.39-.28,1.89-.78c.5-.5.78-1.18.78-1.89s-.28-1.39-.78-1.89c-.5-.5-1.18-.78-1.89-.78Z" style="fill-rule:evenodd; stroke-width:0px;"/></svg>