<svg width="13" height="13" viewBox="0 0 13 13" fill="none" xmlns="http://www.w3.org/2000/svg">
<path d="M5.77778 2.16667C5.96932 2.16667 6.15302 2.24276 6.28847 2.3782C6.42391 2.51364 6.5 2.69734 6.5 2.88889C6.5 3.08043 6.42391 3.26413 6.28847 3.39958C6.15302 3.53502 5.96932 3.61111 5.77778 3.61111H1.44444V11.5556H9.38889V7.22222C9.38889 7.03068 9.46498 6.84698 9.60042 6.71153C9.73586 6.57609 9.91957 6.5 10.1111 6.5C10.3027 6.5 10.4864 6.57609 10.6218 6.71153C10.7572 6.84698 10.8333 7.03068 10.8333 7.22222V11.5556C10.8333 11.9386 10.6812 12.306 10.4103 12.5769C10.1394 12.8478 9.77198 13 9.38889 13H1.44444C1.06135 13 0.693954 12.8478 0.423068 12.5769C0.152182 12.306 0 11.9386 0 11.5556V3.61111C0 3.22802 0.152182 2.86062 0.423068 2.58973C0.693954 2.31885 1.06135 2.16667 1.44444 2.16667H5.77778ZM12.2778 0C12.4693 0 12.653 0.076091 12.7885 0.211534C12.9239 0.346977 13 0.530677 13 0.722222V4.33333C13 4.52488 12.9239 4.70858 12.7885 4.84402C12.653 4.97946 12.4693 5.05556 12.2778 5.05556C12.0862 5.05556 11.9025 4.97946 11.7671 4.84402C11.6316 4.70858 11.5556 4.52488 11.5556 4.33333V2.46567L5.56617 8.45506C5.42995 8.58661 5.24752 8.65941 5.05816 8.65776C4.86879 8.65612 4.68765 8.58016 4.55374 8.44626C4.41984 8.31235 4.34388 8.13121 4.34224 7.94184C4.34059 7.75248 4.41339 7.57005 4.54494 7.43383L10.5343 1.44444H8.66667C8.47512 1.44444 8.29142 1.36835 8.15598 1.23291C8.02054 1.09747 7.94444 0.913767 7.94444 0.722222C7.94444 0.530677 8.02054 0.346977 8.15598 0.211534C8.29142 0.076091 8.47512 0 8.66667 0H12.2778Z" fill="#1ADC4B"/>
</svg>
