<svg width="30" height="26" viewBox="0 0 30 26" fill="none" xmlns="http://www.w3.org/2000/svg">
<path fill-rule="evenodd" clip-rule="evenodd" d="M8.27771 4.85543C7.92793 4.45908 7.96569 3.85423 8.36204 3.50445C10.5628 1.56228 13.3793 0.46064 16.3138 0.39425C19.2483 0.327859 22.1117 1.30099 24.3981 3.14165C26.6845 4.98231 28.2466 7.57198 28.8082 10.453C29.3699 13.3339 28.895 16.3207 27.4675 18.8854C26.04 21.4501 23.7518 23.4276 21.0073 24.4684C18.2628 25.5092 15.2387 25.5462 12.4696 24.573C9.70038 23.5997 7.36442 21.6789 5.87452 19.1499C4.65215 17.075 4.06386 14.7004 4.16312 12.3164L2.28367 13.9751C1.88733 14.3248 1.28247 14.2871 0.932691 13.8908C0.582908 13.4944 0.620653 12.8896 1.017 12.5398L4.84443 9.16198C5.24077 8.8122 5.84563 8.84994 6.19541 9.24629L9.57321 13.0737C9.923 13.4701 9.88525 14.0749 9.48891 14.4247C9.09256 14.7745 8.48771 14.7367 8.13793 14.3404L6.09751 12.0284C5.93327 14.1682 6.42672 16.3159 7.52386 18.1782C8.78455 20.3181 10.7611 21.9435 13.1043 22.767C15.4474 23.5905 18.0063 23.5591 20.3285 22.6785C22.6508 21.7978 24.587 20.1246 25.7949 17.9544C27.0028 15.7843 27.4046 13.257 26.9293 10.8193C26.4541 8.38151 25.1323 6.19025 23.1977 4.63277C21.2631 3.07529 18.8401 2.25188 16.3571 2.30805C13.8741 2.36423 11.4909 3.29638 9.62869 4.93976C9.23234 5.28954 8.62749 5.25178 8.27771 4.85543Z" fill="#1ADC4B"/>
</svg>
