<?xml version="1.0" encoding="UTF-8"?>
<svg id="a" data-name="Camada 1" xmlns="http://www.w3.org/2000/svg" viewBox="0 0 10 10">
  <path d="m6.86.43c0-.24.19-.43.43-.43h2.29c.24,0,.43.19.43.43v2.29c0,.24-.19.43-.43.43s-.43-.19-.43-.43v-1.25l-2.28,2.27c.54.68.85,1.53.85,2.4,0,1.02-.4,2.01-1.12,2.73-.72.73-1.7,1.13-2.72,1.14-1.02,0-2.01-.4-2.73-1.12-.36-.36-.64-.78-.84-1.25C.1,7.16,0,6.66,0,6.15c0-.51.1-1.01.29-1.48.19-.47.48-.89.83-1.25.36-.36.78-.64,1.25-.84.47-.19.97-.3,1.48-.3.51,0,1.01.1,1.48.29.34.14.65.32.93.55l2.28-2.27h-1.25c-.24,0-.43-.19-.43-.43Zm-1.86,2.94c-.36-.15-.75-.23-1.15-.23-.39,0-.78.08-1.15.23-.36.15-.69.37-.97.65-.28.28-.5.61-.65.97-.15.36-.23.75-.23,1.15,0,.39.08.78.23,1.15.15.36.37.69.65.97.56.56,1.33.88,2.12.87.8,0,1.56-.32,2.12-.88.56-.56.88-1.33.87-2.12,0-.8-.32-1.56-.88-2.12-.28-.28-.61-.5-.97-.65Z" style="fill-rule: evenodd; stroke-width: 0px;"/>
</svg>